<svg xmlns="http://www.w3.org/2000/svg" width="450" height="900" viewBox="0 0 450 900" role="img" aria-label="门铃实时画面页截图风格展示">
  <defs>
    <linearGradient id="video" x1="0" y1="0" x2="1" y2="1">
      <stop stop-color="#a66f75"/>
      <stop offset=".55" stop-color="#d7dde0"/>
      <stop offset="1" stop-color="#f8fafc"/>
    </linearGradient>
    <filter id="soft" x="-20%" y="-20%" width="140%" height="140%">
      <feGaussianBlur stdDeviation="10"/>
    </filter>
  </defs>
  <rect width="450" height="900" fill="#020202"/>
  <text x="22" y="86" font-family="Arial,'Microsoft YaHei',sans-serif" font-size="28" font-weight="900" fill="#fff">实时画面</text>
  <rect x="132" y="61" width="58" height="28" rx="14" fill="#ef4444"/>
  <text x="161" y="81" text-anchor="middle" font-family="Arial" font-size="17" font-weight="900" fill="#fff">LIVE</text>
  <circle cx="403" cy="74" r="25" fill="#fff"/>
  <text x="403" y="85" text-anchor="middle" font-family="Arial" font-size="42" font-weight="900" fill="#020617">×</text>
  <rect x="21" y="113" width="408" height="56" rx="15" fill="#2b2b2b"/>
  <rect x="225" y="116" width="201" height="50" rx="13" fill="#0b84ff"/>
  <text x="123" y="150" text-anchor="middle" font-family="Arial,'Microsoft YaHei',sans-serif" font-size="21" font-weight="800" fill="#fff">本地(局域网)</text>
  <text x="326" y="150" text-anchor="middle" font-family="Arial,'Microsoft YaHei',sans-serif" font-size="21" font-weight="900" fill="#fff">中继(远程)</text>
  <rect x="0" y="340" width="450" height="232" fill="url(#video)"/>
  <path d="M254 562 C320 520 371 505 458 492 L458 572 L254 572Z" fill="#fff" opacity=".86" filter="url(#soft)"/>
  <g opacity=".12">
    <path d="M0 360H450M0 390H450M0 420H450M0 450H450M0 480H450M0 510H450M0 540H450" stroke="#fff"/>
    <path d="M30 340V572M70 340V572M110 340V572M150 340V572M190 340V572M230 340V572M270 340V572M310 340V572M350 340V572M390 340V572" stroke="#fff"/>
  </g>
  <circle cx="225" cy="738" r="43" fill="#8b8d95"/>
  <rect x="206" y="721" width="38" height="28" rx="6" fill="none" stroke="#fff" stroke-width="5"/>
  <circle cx="225" cy="735" r="9" fill="none" stroke="#fff" stroke-width="5"/>
  <text x="225" y="808" text-anchor="middle" font-family="Arial,'Microsoft YaHei',sans-serif" font-size="21" fill="#fff">快照</text>
  <rect x="150" y="872" width="150" height="5" rx="3" fill="#a3a3a3"/>
</svg>
